<?xml version="1.0" encoding="utf-8"?>
<svg xmlns="http://www.w3.org/2000/svg" xmlns:xlink="http://www.w3.org/1999/xlink" style="background: rgb(0, 82, 16); display: block; position: relative; shape-rendering: auto;" width="131" height="131" preserveAspectRatio="xMidYMid" viewBox="0 0 131 131"><g transform="scale(0.51)"><defs><g id="pat-0.9188710985203182"><polyline fill-rule="evenodd" clip-rule="evenodd" fill="none" stroke="#b83044" stroke-width="8" stroke-linecap="round" stroke-linejoin="round" stroke-miterlimit="10" points=" -3,-2 16.5,15.5 31.5,0.5 63.5,32.5 48.5,47.5 31.5,32.5 -0.5,64.5 16.5,79.5 31.5,64.5 47.5,79.5 95.5,32.5 80.5,15.5 95.5,0.5 127.5,32.5 48.5,111.5 31.5,96.5 -0.5,128.5 16.5,143.5 31.5,127.5 63.5,160.5 80.5,143.5 63.5,128.5 159.5,32.5 144.5,15.5 159.5,0.5 175.5,16.5 192,0 208,16 224,0 256,32 240,48 224,32 207.501,48.501 223.5,64.5 207.5,80.5 176.5,47.5 144.5,80.5 159.5,96.5 175.5,80.5 191.5,96.5 159.5,128.5 127.5,96.5 95.5,127.5 111.5,143.5 127.5,127.5 175.5,176.5 159.5,192.5 127.5,160.5 111.5,176.5 95.5,160.5 63.5,192.5 31.5,160.5 16.5,175.5 31.999,191.483 0,224 16,240 32,225 64,256 80,240 64,224 79.667,208.333 95.5,192.5 111.5,207.5 95.5,224.5 111.5,239.5 127.5,256.5 143.5,240.5 127.5,224.5 143.5,208.5 175.5,240.5 191.5,224.5 175.5,208.5 207.5,176.5 224,160 208,144 191.998,160.998 175.5,144.5 207.5,112.5 240,80 256,96 223.5,128.5 256,160 239.5,176.5 256,192 240,208 224,192 207.5,208.5 223.5,224.5 207.5,240.5 223.5,256.5 240,240 259,259" stroke-dasharray="142.71990966796875 47.57330322265625 142.71990966796875 47.57330322265625 142.71990966796875 47.57330322265625 142.71990966796875 47.57330322265625 142.71990966796875 47.57330322265625 142.71990966796875 47.57330322265625 142.71990966796875 47.57330322265625 142.71990966796875 47.57330322265625 142.71990966796875 47.57330322265625 142.71990966796875 47.57330322265625 142.71990966796875 47.57330322265625 142.71990966796875 47.57330322265625 142.71990966796875 47.57330322265625 142.71990966796875 47.57330322265625 142.71990966796875 47.57330322265625">
  <animate attributeName="stroke-dashoffset" keyTimes="0;1" values="0;190.293212890625" repeatCount="indefinite" dur="1.5151515151515151s"></animate>
</polyline></g></defs><use href="#pat-0.9188710985203182" x="0" y="0"></use><use href="#pat-0.9188710985203182" x="-256" y="0"></use><use href="#pat-0.9188710985203182" x="256" y="0"></use><use href="#pat-0.9188710985203182" x="0" y="-256"></use><use href="#pat-0.9188710985203182" x="0" y="256"></use></g><style type="text/css">.lded {
  max-width: 100%
}
.lded .viewer {
  width:  1140px;
  max-width: 90%;
  margin: 0 auto;
  height: 322px;
}
.lded .panel, .lded .ctrl {
  max-width: 1024px;
  margin: auto
}
.lded .panel {
  margin: -35px auto 0;
}
.gallery {
  display: flex;
  flex-wrap: nowrap;
  justify-content: space-between;
}
.gallery .item {
  flex: 1 1 256px;
  border-radius: 3px;
  width: 256px;
  height: 128px;
  margin: 0 10px 20px;
  display: inline-block;
  box-shadow: 0 1px 3px rgba(0,0,0,.3);
  background-size: 128px;
}
.gallery .item .move {
  visibility: hidden;
  opacity: 0;
  transition: visibility 0.3s ease-in-out, opacity 03.s ease-in-out;
  width: 100%;
  height: 100%;
  background-size: 128px;
}
.gallery .item:hover .move {
  visibility: visible;
  opacity: 1;
}
.gallery.icon {
  justify-content: center;
}
.gallery.icon .item {
  flex:0 0 64px;
  border-radius: 3px;
  width: 64px;
  height: 64px;
  box-shadow: none;
  background-position: center center;
  background-repeat: no-repeat;
  background-size: cover;
  margin:0 5px 10px;
  background: #fff;
}
.lded.pro .download .label { display: none }
</style></svg>