<?xml version="1.0" encoding="utf-8"?>
<svg xmlns="http://www.w3.org/2000/svg" xmlns:xlink="http://www.w3.org/1999/xlink" style="background: rgb(255, 254, 250); display: block; position: relative; shape-rendering: auto;" width="140" height="140" preserveAspectRatio="xMidYMid" viewBox="0 0 140 140"><g transform="scale(0.55)"><defs>
  <filter id="pat-0.5756278569640491" x="-100%" y="-100%" width="300%" height="300%" color-interpolation-filters="sRGB">
    <feGaussianBlur in="SourceGraphic" stdDeviation="10"></feGaussianBlur>
    <feComponentTransfer result="cutoff">
      <feFuncA type="linear" slope="60" intercept="-40"></feFuncA>
    </feComponentTransfer>
  </filter>
</defs><g filter="url(#f)"><g style="isolation:isolate" filter="url(#pat-0.5756278569640491)">
<rect x="0" y="0" width="256" height="256" fill="none"></rect><g transform="translate(0 -153.594)">
  <circle cx="-76.99234542800278" cy="179.73961286037465" r="8.3345096391288" fill="#ff8e3a"></circle> <circle cx="179.00765457199722" cy="179.73961286037465" r="8.3345096391288" fill="#ff8e3a"></circle> <circle cx="435.00765457199725" cy="179.73961286037465" r="8.3345096391288" fill="#ff8e3a"></circle> <circle cx="-76.99234542800278" cy="435.7396128603747" r="8.3345096391288" fill="#ff8e3a"></circle> <circle cx="179.00765457199722" cy="435.7396128603747" r="8.3345096391288" fill="#ff8e3a"></circle> <circle cx="435.00765457199725" cy="435.7396128603747" r="8.3345096391288" fill="#ff8e3a"></circle> <circle cx="-76.99234542800278" cy="691.7396128603747" r="8.3345096391288" fill="#ff8e3a"></circle> <circle cx="179.00765457199722" cy="691.7396128603747" r="8.3345096391288" fill="#ff8e3a"></circle> <circle cx="435.00765457199725" cy="691.7396128603747" r="8.3345096391288" fill="#ff8e3a"></circle> <circle cx="-152.34435323318036" cy="-8.044722175875052" r="23.823616596820553" fill="#ff8e3a"></circle> <circle cx="103.65564676681966" cy="-8.044722175875052" r="23.823616596820553" fill="#ff8e3a"></circle> <circle cx="359.65564676681964" cy="-8.044722175875052" r="23.823616596820553" fill="#ff8e3a"></circle> <circle cx="-152.34435323318036" cy="247.95527782412495" r="23.823616596820553" fill="#ff8e3a"></circle> <circle cx="103.65564676681966" cy="247.95527782412495" r="23.823616596820553" fill="#ff8e3a"></circle> <circle cx="359.65564676681964" cy="247.95527782412495" r="23.823616596820553" fill="#ff8e3a"></circle> <circle cx="-152.34435323318036" cy="503.95527782412495" r="23.823616596820553" fill="#ff8e3a"></circle> <circle cx="103.65564676681966" cy="503.95527782412495" r="23.823616596820553" fill="#ff8e3a"></circle> <circle cx="359.65564676681964" cy="503.95527782412495" r="23.823616596820553" fill="#ff8e3a"></circle> <circle cx="-152.34435323318036" cy="759.955277824125" r="23.823616596820553" fill="#ff8e3a"></circle> <circle cx="103.65564676681966" cy="759.955277824125" r="23.823616596820553" fill="#ff8e3a"></circle> <circle cx="359.65564676681964" cy="759.955277824125" r="23.823616596820553" fill="#ff8e3a"></circle> <circle cx="-42.935638789601455" cy="52.26797184275126" r="27.402522267492543" fill="#ff8e3a"></circle> <circle cx="213.06436121039854" cy="52.26797184275126" r="27.402522267492543" fill="#ff8e3a"></circle> <circle cx="469.06436121039854" cy="52.26797184275126" r="27.402522267492543" fill="#ff8e3a"></circle> <circle cx="-42.935638789601455" cy="308.26797184275125" r="27.402522267492543" fill="#ff8e3a"></circle> <circle cx="213.06436121039854" cy="308.26797184275125" r="27.402522267492543" fill="#ff8e3a"></circle> <circle cx="469.06436121039854" cy="308.26797184275125" r="27.402522267492543" fill="#ff8e3a"></circle> <circle cx="-42.935638789601455" cy="564.2679718427513" r="27.402522267492543" fill="#ff8e3a"></circle> <circle cx="213.06436121039854" cy="564.2679718427513" r="27.402522267492543" fill="#ff8e3a"></circle> <circle cx="469.06436121039854" cy="564.2679718427513" r="27.402522267492543" fill="#ff8e3a"></circle> <circle cx="-3.946699499429542" cy="182.60415207349817" r="5.345854465009353" fill="#ff8e3a"></circle> <circle cx="252.05330050057046" cy="182.60415207349817" r="5.345854465009353" fill="#ff8e3a"></circle> <circle cx="508.05330050057046" cy="182.60415207349817" r="5.345854465009353" fill="#ff8e3a"></circle> <circle cx="-3.946699499429542" cy="438.6041520734982" r="5.345854465009353" fill="#ff8e3a"></circle> <circle cx="252.05330050057046" cy="438.6041520734982" r="5.345854465009353" fill="#ff8e3a"></circle> <circle cx="508.05330050057046" cy="438.6041520734982" r="5.345854465009353" fill="#ff8e3a"></circle> <circle cx="-3.946699499429542" cy="694.6041520734982" r="5.345854465009353" fill="#ff8e3a"></circle> <circle cx="252.05330050057046" cy="694.6041520734982" r="5.345854465009353" fill="#ff8e3a"></circle> <circle cx="508.05330050057046" cy="694.6041520734982" r="5.345854465009353" fill="#ff8e3a"></circle> <circle cx="-162.97892435825042" cy="193.35625608702688" r="41.05162000869673" fill="#ff8e3a"></circle> <circle cx="93.02107564174956" cy="193.35625608702688" r="41.05162000869673" fill="#ff8e3a"></circle> <circle cx="349.0210756417496" cy="193.35625608702688" r="41.05162000869673" fill="#ff8e3a"></circle> <circle cx="-162.97892435825042" cy="449.35625608702685" r="41.05162000869673" fill="#ff8e3a"></circle> <circle cx="93.02107564174956" cy="449.35625608702685" r="41.05162000869673" fill="#ff8e3a"></circle> <circle cx="349.0210756417496" cy="449.35625608702685" r="41.05162000869673" fill="#ff8e3a"></circle> <circle cx="-162.97892435825042" cy="705.3562560870268" r="41.05162000869673" fill="#ff8e3a"></circle> <circle cx="93.02107564174956" cy="705.3562560870268" r="41.05162000869673" fill="#ff8e3a"></circle> <circle cx="349.0210756417496" cy="705.3562560870268" r="41.05162000869673" fill="#ff8e3a"></circle> <circle cx="-57.25275209608975" cy="68.10860008215614" r="30.701568414511566" fill="#ff8e3a"></circle> <circle cx="198.74724790391025" cy="68.10860008215614" r="30.701568414511566" fill="#ff8e3a"></circle> <circle cx="454.74724790391025" cy="68.10860008215614" r="30.701568414511566" fill="#ff8e3a"></circle> <circle cx="-57.25275209608975" cy="324.10860008215616" r="30.701568414511566" fill="#ff8e3a"></circle> <circle cx="198.74724790391025" cy="324.10860008215616" r="30.701568414511566" fill="#ff8e3a"></circle> <circle cx="454.74724790391025" cy="324.10860008215616" r="30.701568414511566" fill="#ff8e3a"></circle> <circle cx="-57.25275209608975" cy="580.1086000821562" r="30.701568414511566" fill="#ff8e3a"></circle> <circle cx="198.74724790391025" cy="580.1086000821562" r="30.701568414511566" fill="#ff8e3a"></circle> <circle cx="454.74724790391025" cy="580.1086000821562" r="30.701568414511566" fill="#ff8e3a"></circle> <circle cx="-45.57942785136785" cy="-5.751587664655489" r="30.053845797564218" fill="#ff8e3a"></circle> <circle cx="210.42057214863215" cy="-5.751587664655489" r="30.053845797564218" fill="#ff8e3a"></circle> <circle cx="466.4205721486321" cy="-5.751587664655489" r="30.053845797564218" fill="#ff8e3a"></circle> <circle cx="-45.57942785136785" cy="250.2484123353445" r="30.053845797564218" fill="#ff8e3a"></circle> <circle cx="210.42057214863215" cy="250.2484123353445" r="30.053845797564218" fill="#ff8e3a"></circle> <circle cx="466.4205721486321" cy="250.2484123353445" r="30.053845797564218" fill="#ff8e3a"></circle> <circle cx="-45.57942785136785" cy="506.2484123353445" r="30.053845797564218" fill="#ff8e3a"></circle> <circle cx="210.42057214863215" cy="506.2484123353445" r="30.053845797564218" fill="#ff8e3a"></circle> <circle cx="466.4205721486321" cy="506.2484123353445" r="30.053845797564218" fill="#ff8e3a"></circle> <circle cx="-45.57942785136785" cy="762.2484123353445" r="30.053845797564218" fill="#ff8e3a"></circle> <circle cx="210.42057214863215" cy="762.2484123353445" r="30.053845797564218" fill="#ff8e3a"></circle> <circle cx="466.4205721486321" cy="762.2484123353445" r="30.053845797564218" fill="#ff8e3a"></circle> 
  <animateTransform attributeName="transform" type="translate" dur="3.3333333333333335s" repeatCount="indefinite" keyTimes="0;1" values="0 0;0 -256"></animateTransform>
</g><g transform="translate(0 -51.1877)">
  <circle cx="-248.27074098210966" cy="-12.097158910257463" r="12.897010668533374" fill="undefined"></circle> <circle cx="7.729259017890334" cy="-12.097158910257463" r="12.897010668533374" fill="undefined"></circle> <circle cx="263.72925901789034" cy="-12.097158910257463" r="12.897010668533374" fill="undefined"></circle> <circle cx="-248.27074098210966" cy="243.90284108974254" r="12.897010668533374" fill="undefined"></circle> <circle cx="7.729259017890334" cy="243.90284108974254" r="12.897010668533374" fill="undefined"></circle> <circle cx="263.72925901789034" cy="243.90284108974254" r="12.897010668533374" fill="undefined"></circle> <circle cx="-248.27074098210966" cy="499.90284108974254" r="12.897010668533374" fill="undefined"></circle> <circle cx="7.729259017890334" cy="499.90284108974254" r="12.897010668533374" fill="undefined"></circle> <circle cx="263.72925901789034" cy="499.90284108974254" r="12.897010668533374" fill="undefined"></circle> <circle cx="-248.27074098210966" cy="755.9028410897425" r="12.897010668533374" fill="undefined"></circle> <circle cx="7.729259017890334" cy="755.9028410897425" r="12.897010668533374" fill="undefined"></circle> <circle cx="263.72925901789034" cy="755.9028410897425" r="12.897010668533374" fill="undefined"></circle> <circle cx="-116.98984780977287" cy="126.83557243643824" r="33.506953891222395" fill="undefined"></circle> <circle cx="139.01015219022713" cy="126.83557243643824" r="33.506953891222395" fill="undefined"></circle> <circle cx="395.01015219022713" cy="126.83557243643824" r="33.506953891222395" fill="undefined"></circle> <circle cx="-116.98984780977287" cy="382.83557243643827" r="33.506953891222395" fill="undefined"></circle> <circle cx="139.01015219022713" cy="382.83557243643827" r="33.506953891222395" fill="undefined"></circle> <circle cx="395.01015219022713" cy="382.83557243643827" r="33.506953891222395" fill="undefined"></circle> <circle cx="-116.98984780977287" cy="638.8355724364383" r="33.506953891222395" fill="undefined"></circle> <circle cx="139.01015219022713" cy="638.8355724364383" r="33.506953891222395" fill="undefined"></circle> <circle cx="395.01015219022713" cy="638.8355724364383" r="33.506953891222395" fill="undefined"></circle> <circle cx="-114.55322244510748" cy="113.55793721051214" r="7.2712639911727" fill="undefined"></circle> <circle cx="141.44677755489252" cy="113.55793721051214" r="7.2712639911727" fill="undefined"></circle> <circle cx="397.4467775548925" cy="113.55793721051214" r="7.2712639911727" fill="undefined"></circle> <circle cx="-114.55322244510748" cy="369.55793721051214" r="7.2712639911727" fill="undefined"></circle> <circle cx="141.44677755489252" cy="369.55793721051214" r="7.2712639911727" fill="undefined"></circle> <circle cx="397.4467775548925" cy="369.55793721051214" r="7.2712639911727" fill="undefined"></circle> <circle cx="-114.55322244510748" cy="625.5579372105121" r="7.2712639911727" fill="undefined"></circle> <circle cx="141.44677755489252" cy="625.5579372105121" r="7.2712639911727" fill="undefined"></circle> <circle cx="397.4467775548925" cy="625.5579372105121" r="7.2712639911727" fill="undefined"></circle> <circle cx="-216.32341061193645" cy="147.01087605766662" r="16.043119357879917" fill="undefined"></circle> <circle cx="39.67658938806354" cy="147.01087605766662" r="16.043119357879917" fill="undefined"></circle> <circle cx="295.6765893880635" cy="147.01087605766662" r="16.043119357879917" fill="undefined"></circle> <circle cx="-216.32341061193645" cy="403.0108760576666" r="16.043119357879917" fill="undefined"></circle> <circle cx="39.67658938806354" cy="403.0108760576666" r="16.043119357879917" fill="undefined"></circle> <circle cx="295.6765893880635" cy="403.0108760576666" r="16.043119357879917" fill="undefined"></circle> <circle cx="-216.32341061193645" cy="659.0108760576666" r="16.043119357879917" fill="undefined"></circle> <circle cx="39.67658938806354" cy="659.0108760576666" r="16.043119357879917" fill="undefined"></circle> <circle cx="295.6765893880635" cy="659.0108760576666" r="16.043119357879917" fill="undefined"></circle> <circle cx="-215.76807395720408" cy="209.64592279923522" r="23.67862021500042" fill="undefined"></circle> <circle cx="40.23192604279593" cy="209.64592279923522" r="23.67862021500042" fill="undefined"></circle> <circle cx="296.2319260427959" cy="209.64592279923522" r="23.67862021500042" fill="undefined"></circle> <circle cx="-215.76807395720408" cy="465.6459227992352" r="23.67862021500042" fill="undefined"></circle> <circle cx="40.23192604279593" cy="465.6459227992352" r="23.67862021500042" fill="undefined"></circle> <circle cx="296.2319260427959" cy="465.6459227992352" r="23.67862021500042" fill="undefined"></circle> <circle cx="-215.76807395720408" cy="721.6459227992352" r="23.67862021500042" fill="undefined"></circle> <circle cx="40.23192604279593" cy="721.6459227992352" r="23.67862021500042" fill="undefined"></circle> <circle cx="296.2319260427959" cy="721.6459227992352" r="23.67862021500042" fill="undefined"></circle> <circle cx="-4.467945492593486" cy="-12.020191626110545" r="23.29483512159692" fill="undefined"></circle> <circle cx="251.5320545074065" cy="-12.020191626110545" r="23.29483512159692" fill="undefined"></circle> <circle cx="507.53205450740654" cy="-12.020191626110545" r="23.29483512159692" fill="undefined"></circle> <circle cx="-4.467945492593486" cy="243.97980837388945" r="23.29483512159692" fill="undefined"></circle> <circle cx="251.5320545074065" cy="243.97980837388945" r="23.29483512159692" fill="undefined"></circle> <circle cx="507.53205450740654" cy="243.97980837388945" r="23.29483512159692" fill="undefined"></circle> <circle cx="-4.467945492593486" cy="499.97980837388945" r="23.29483512159692" fill="undefined"></circle> <circle cx="251.5320545074065" cy="499.97980837388945" r="23.29483512159692" fill="undefined"></circle> <circle cx="507.53205450740654" cy="499.97980837388945" r="23.29483512159692" fill="undefined"></circle> <circle cx="-4.467945492593486" cy="755.9798083738895" r="23.29483512159692" fill="undefined"></circle> <circle cx="251.5320545074065" cy="755.9798083738895" r="23.29483512159692" fill="undefined"></circle> <circle cx="507.53205450740654" cy="755.9798083738895" r="23.29483512159692" fill="undefined"></circle> <circle cx="-63.80874495687999" cy="8.84281995794904" r="37.935771487336226" fill="undefined"></circle> <circle cx="192.19125504312" cy="8.84281995794904" r="37.935771487336226" fill="undefined"></circle> <circle cx="448.19125504312" cy="8.84281995794904" r="37.935771487336226" fill="undefined"></circle> <circle cx="-63.80874495687999" cy="264.842819957949" r="37.935771487336226" fill="undefined"></circle> <circle cx="192.19125504312" cy="264.842819957949" r="37.935771487336226" fill="undefined"></circle> <circle cx="448.19125504312" cy="264.842819957949" r="37.935771487336226" fill="undefined"></circle> <circle cx="-63.80874495687999" cy="520.842819957949" r="37.935771487336226" fill="undefined"></circle> <circle cx="192.19125504312" cy="520.842819957949" r="37.935771487336226" fill="undefined"></circle> <circle cx="448.19125504312" cy="520.842819957949" r="37.935771487336226" fill="undefined"></circle> 
  <animateTransform attributeName="transform" type="translate" dur="1.6666666666666667s" repeatCount="indefinite" keyTimes="0;1" values="0 0;0 -256"></animateTransform>
</g><g transform="translate(0 -204.782)">
  <circle cx="-167.58840553890914" cy="175.70154771745678" r="29.081207929114786" fill="undefined"></circle> <circle cx="88.41159446109086" cy="175.70154771745678" r="29.081207929114786" fill="undefined"></circle> <circle cx="344.4115944610909" cy="175.70154771745678" r="29.081207929114786" fill="undefined"></circle> <circle cx="-167.58840553890914" cy="431.7015477174568" r="29.081207929114786" fill="undefined"></circle> <circle cx="88.41159446109086" cy="431.7015477174568" r="29.081207929114786" fill="undefined"></circle> <circle cx="344.4115944610909" cy="431.7015477174568" r="29.081207929114786" fill="undefined"></circle> <circle cx="-167.58840553890914" cy="687.7015477174568" r="29.081207929114786" fill="undefined"></circle> <circle cx="88.41159446109086" cy="687.7015477174568" r="29.081207929114786" fill="undefined"></circle> <circle cx="344.4115944610909" cy="687.7015477174568" r="29.081207929114786" fill="undefined"></circle> <circle cx="-3.0183051428792567" cy="146.73942686665606" r="23.95274803914782" fill="undefined"></circle> <circle cx="252.98169485712074" cy="146.73942686665606" r="23.95274803914782" fill="undefined"></circle> <circle cx="508.9816948571207" cy="146.73942686665606" r="23.95274803914782" fill="undefined"></circle> <circle cx="-3.0183051428792567" cy="402.73942686665606" r="23.95274803914782" fill="undefined"></circle> <circle cx="252.98169485712074" cy="402.73942686665606" r="23.95274803914782" fill="undefined"></circle> <circle cx="508.9816948571207" cy="402.73942686665606" r="23.95274803914782" fill="undefined"></circle> <circle cx="-3.0183051428792567" cy="658.739426866656" r="23.95274803914782" fill="undefined"></circle> <circle cx="252.98169485712074" cy="658.739426866656" r="23.95274803914782" fill="undefined"></circle> <circle cx="508.9816948571207" cy="658.739426866656" r="23.95274803914782" fill="undefined"></circle> <circle cx="-26.833434551672326" cy="53.52301125394862" r="27.51433513818241" fill="undefined"></circle> <circle cx="229.16656544832767" cy="53.52301125394862" r="27.51433513818241" fill="undefined"></circle> <circle cx="485.1665654483277" cy="53.52301125394862" r="27.51433513818241" fill="undefined"></circle> <circle cx="-26.833434551672326" cy="309.5230112539486" r="27.51433513818241" fill="undefined"></circle> <circle cx="229.16656544832767" cy="309.5230112539486" r="27.51433513818241" fill="undefined"></circle> <circle cx="485.1665654483277" cy="309.5230112539486" r="27.51433513818241" fill="undefined"></circle> <circle cx="-26.833434551672326" cy="565.5230112539487" r="27.51433513818241" fill="undefined"></circle> <circle cx="229.16656544832767" cy="565.5230112539487" r="27.51433513818241" fill="undefined"></circle> <circle cx="485.1665654483277" cy="565.5230112539487" r="27.51433513818241" fill="undefined"></circle> <circle cx="-170.52685455934568" cy="45.24955596158681" r="13.743207474396543" fill="undefined"></circle> <circle cx="85.4731454406543" cy="45.24955596158681" r="13.743207474396543" fill="undefined"></circle> <circle cx="341.4731454406543" cy="45.24955596158681" r="13.743207474396543" fill="undefined"></circle> <circle cx="-170.52685455934568" cy="301.2495559615868" r="13.743207474396543" fill="undefined"></circle> <circle cx="85.4731454406543" cy="301.2495559615868" r="13.743207474396543" fill="undefined"></circle> <circle cx="341.4731454406543" cy="301.2495559615868" r="13.743207474396543" fill="undefined"></circle> <circle cx="-170.52685455934568" cy="557.2495559615868" r="13.743207474396543" fill="undefined"></circle> <circle cx="85.4731454406543" cy="557.2495559615868" r="13.743207474396543" fill="undefined"></circle> <circle cx="341.4731454406543" cy="557.2495559615868" r="13.743207474396543" fill="undefined"></circle> <circle cx="-76.22846523469238" cy="135.3908295048416" r="25.874297510017065" fill="undefined"></circle> <circle cx="179.77153476530762" cy="135.3908295048416" r="25.874297510017065" fill="undefined"></circle> <circle cx="435.7715347653076" cy="135.3908295048416" r="25.874297510017065" fill="undefined"></circle> <circle cx="-76.22846523469238" cy="391.3908295048416" r="25.874297510017065" fill="undefined"></circle> <circle cx="179.77153476530762" cy="391.3908295048416" r="25.874297510017065" fill="undefined"></circle> <circle cx="435.7715347653076" cy="391.3908295048416" r="25.874297510017065" fill="undefined"></circle> <circle cx="-76.22846523469238" cy="647.3908295048416" r="25.874297510017065" fill="undefined"></circle> <circle cx="179.77153476530762" cy="647.3908295048416" r="25.874297510017065" fill="undefined"></circle> <circle cx="435.7715347653076" cy="647.3908295048416" r="25.874297510017065" fill="undefined"></circle> <circle cx="-6.047863664174685" cy="17.282649457068693" r="24.511766129102977" fill="undefined"></circle> <circle cx="249.95213633582532" cy="17.282649457068693" r="24.511766129102977" fill="undefined"></circle> <circle cx="505.95213633582534" cy="17.282649457068693" r="24.511766129102977" fill="undefined"></circle> <circle cx="-6.047863664174685" cy="273.2826494570687" r="24.511766129102977" fill="undefined"></circle> <circle cx="249.95213633582532" cy="273.2826494570687" r="24.511766129102977" fill="undefined"></circle> <circle cx="505.95213633582534" cy="273.2826494570687" r="24.511766129102977" fill="undefined"></circle> <circle cx="-6.047863664174685" cy="529.2826494570687" r="24.511766129102977" fill="undefined"></circle> <circle cx="249.95213633582532" cy="529.2826494570687" r="24.511766129102977" fill="undefined"></circle> <circle cx="505.95213633582534" cy="529.2826494570687" r="24.511766129102977" fill="undefined"></circle> 
  <animateTransform attributeName="transform" type="translate" dur="1.1111111111111112s" repeatCount="indefinite" keyTimes="0;1" values="0 0;0 -256"></animateTransform>
</g></g></g><filter id="f">
<feDiffuseLighting lighting-color="#fffefa" surfaceScale="0.71" result="light">
  <feDistantLight azimuth="45" elevation="60"></feDistantLight>
</feDiffuseLighting>
</filter></g><style type="text/css">.lded {
  max-width: 100%
}
.lded .viewer {
  width:  1140px;
  max-width: 90%;
  margin: 0 auto;
  height: 322px;
}
.lded .panel, .lded .ctrl {
  max-width: 1024px;
  margin: auto
}
.lded .panel {
  margin: -35px auto 0;
}
.gallery {
  display: flex;
  flex-wrap: nowrap;
  justify-content: space-between;
}
.gallery .item {
  flex: 1 1 256px;
  border-radius: 3px;
  width: 256px;
  height: 128px;
  margin: 0 10px 20px;
  display: inline-block;
  box-shadow: 0 1px 3px rgba(0,0,0,.3);
  background-size: 128px;
}
.gallery .item .move {
  visibility: hidden;
  opacity: 0;
  transition: visibility 0.3s ease-in-out, opacity 03.s ease-in-out;
  width: 100%;
  height: 100%;
  background-size: 128px;
}
.gallery .item:hover .move {
  visibility: visible;
  opacity: 1;
}
.gallery.icon {
  justify-content: center;
}
.gallery.icon .item {
  flex:0 0 64px;
  border-radius: 3px;
  width: 64px;
  height: 64px;
  box-shadow: none;
  background-position: center center;
  background-repeat: no-repeat;
  background-size: cover;
  margin:0 5px 10px;
  background: #fff;
}
.lded.pro .download .label { display: none }
</style></svg>